<svg width="15" height="15" viewBox="0 0 15 15" fill="none" xmlns="http://www.w3.org/2000/svg">
<path d="M13.4998 4.99992C13.4236 5.00023 13.3483 4.98313 13.2798 4.94992L7.49977 1.99992L1.71977 4.92992C1.59644 4.98827 1.45499 4.99524 1.32653 4.94929C1.19807 4.90334 1.09312 4.80825 1.03477 4.68492C0.976421 4.5616 0.969454 4.42014 1.0154 4.29168C1.06135 4.16322 1.15644 4.05827 1.27977 3.99992L7.49977 0.919922L13.7198 3.99992C13.8509 4.03055 13.9646 4.1116 14.0364 4.2255C14.1082 4.33941 14.1323 4.47701 14.1033 4.60851C14.0744 4.74 13.9948 4.85481 13.8819 4.92807C13.7689 5.00133 13.6316 5.02715 13.4998 4.99992ZM4.99977 9.99992H1.99977V12.9999H4.99977V9.99992ZM8.99977 9.99992H5.99977V12.9999H8.99977V9.99992ZM12.9998 9.99992H9.99977V12.9999H12.9998V9.99992ZM10.9998 5.99992H7.99977V8.99992H10.9998V5.99992ZM6.99977 5.99992H3.99977V8.99992H6.99977V5.99992Z" fill="#FF2323"/>
</svg>
